# xmcd
#
# Track frame offsets:
#	150
#	14797
#	30635
#	43788
#	61786
#	77119
#	96419
#	108572
#	125150
#	142008
#	161879
#	186212
#	206588
#	223550
#
# Disc length: 3208 seconds
#
# Revision: 1
# Processed by: cddbd v1.5.2PL0 Copyright (c) Steve Scherf et al.
# Submitted via: EZCDAudioConverter 8.0.7.1
#
DISCID=d60c860e
DTITLE=The Judds - I Will Stand By You: The Essential Collection
DYEAR=2011
DGENRE=Country
TTITLE0=Mama He's Crazy
TTITLE1=Why Not Me
TTITLE2=Girls Night Out
TTITLE3=Love Is Alive
TTITLE4=Have Mercy
TTITLE5=Grandpa (Tell Me 'bout The Good Old Days)
TTITLE6=Rockin' With The Rhythm Of The Rain
TTITLE7=I Know Where I'm Going
TTITLE8=Turn It Loose
TTITLE9=Young Love
TTITLE10=Love Can Build A Bridge
TTITLE11=Flies On The Butter (You Can't Go Home Again)
TTITLE12=I Will Stand By You
TTITLE13=Back Home
EXTD=
EXTT0=
EXTT1=
EXTT2=
EXTT3=
EXTT4=
EXTT5=
EXTT6=
EXTT7=
EXTT8=
EXTT9=
EXTT10=
EXTT11=
EXTT12=
EXTT13=
PLAYORDER=
